<?xml version="1.0" encoding="UTF-8" standalone="no"?> <svg id="Layer_1" data-name="Layer 1" xmlns="http://www.w3.org/2000/svg" viewBox="0 0 64 64"><title>phone</title><path d="M46,61H18a5,5,0,0,1-5-5V8a5,5,0,0,1,5-5H46a5,5,0,0,1,5,5V56A5,5,0,0,1,46,61ZM18,5a3,3,0,0,0-3,3V56a3,3,0,0,0,3,3H46a3,3,0,0,0,3-3V8a3,3,0,0,0-3-3Z"/><path d="M50,51H14a1,1,0,0,1,0-2H50a1,1,0,0,1,0,2Z"/><path d="M35,58H29a3,3,0,0,1,0-6h6a3,3,0,0,1,0,6Zm-6-4a1,1,0,0,0,0,2h6a1,1,0,0,0,0-2Z"/><path d="M32,12a3,3,0,1,1,3-3A3,3,0,0,1,32,12Zm0-4a1,1,0,1,0,1,1A1,1,0,0,0,32,8Z"/></svg>